nColumns=28
nRows=47
DataType=double
version=3
OpenSimVersion=4.1
endheader
time	ground_force_1_vx	ground_force_1_vy	ground_force_1_vz	ground_force_1_px	ground_force_1_py	ground_force_1_pz	ground_force_1_mx	ground_force_1_my	ground_force_1_mz	ground_force_2_vx	ground_force_2_vy	ground_force_2_vz	ground_force_2_px	ground_force_2_py	ground_force_2_pz	ground_force_2_mx	ground_force_2_my	ground_force_2_mz	ground_force_3_vx	ground_force_3_vy	ground_force_3_vz	ground_force_3_px	ground_force_3_py	ground_force_3_pz	ground_force_3_mx	ground_force_3_my	ground_force_3_mz
6.6	-8.37588	513.1	-8.42312	-0.214003	0.006	-0.459386	0	-5.3003	0	7.31492	191.873	15.1496	-0.2014	0.006	-0.760521	0	4.00854	0	0	0	0	0	0	0	0	0	0
6.61	-8.81964	514.662	-7.69599	-0.212948	0.006	-0.459303	0	-5.44215	0	7.29194	192.69	15.2872	-0.200281	0.006	-0.761199	0	4.13994	0	0	0	0	0	0	0	0	0	0
6.62	-9.31322	516.161	-7.11743	-0.211882	0.006	-0.45917	0	-5.58395	0	7.17194	193.424	15.4101	-0.199124	0.006	-0.761892	0	4.26947	0	0	0	0	0	0	0	0	0	0
6.63	-9.85233	517.544	-6.70572	-0.210808	0.006	-0.458991	0	-5.72132	0	6.96685	194.061	15.5064	-0.197938	0.006	-0.762584	0	4.39551	0	0	0	0	0	0	0	0	0	0
6.64	-10.4337	518.772	-6.47243	-0.209734	0.006	-0.458769	0	-5.84995	0	6.69058	194.586	15.5656	-0.19673	0.006	-0.763261	0	4.51636	0	0	0	0	0	0	0	0	0	0
6.65	-11.0553	519.827	-6.42094	-0.208664	0.006	-0.45851	0	-5.96595	0	6.3567	194.984	15.5794	-0.19551	0.006	-0.763912	0	4.63034	0	0	0	0	0	0	0	0	0	0
6.66	-11.714	520.704	-6.54452	-0.207606	0.006	-0.458221	0	-6.06606	0	5.97756	195.238	15.5429	-0.194288	0.006	-0.764526	0	4.7359	0	0	0	0	0	0	0	0	0	0
6.67	-12.404	521.413	-6.82635	-0.206568	0.006	-0.457909	0	-6.14802	0	5.56495	195.335	15.4541	-0.193072	0.006	-0.765092	0	4.83162	0	0	0	0	0	0	0	0	0	0
6.68	-13.1155	521.979	-7.24154	-0.205561	0.006	-0.457582	0	-6.21061	0	5.13111	195.266	15.3141	-0.191872	0.006	-0.765604	0	4.91616	0	0	0	0	0	0	0	0	0	0
6.69	-13.8342	522.433	-7.75987	-0.204596	0.006	-0.457249	0	-6.25355	0	4.68904	195.026	15.1274	-0.190699	0.006	-0.766057	0	4.98833	0	0	0	0	0	0	0	0	0	0
6.7	-14.5427	522.811	-8.34845	-0.203685	0.006	-0.456918	0	-6.27721	0	4.25157	194.614	14.9013	-0.189561	0.006	-0.76645	0	5.0471	0	0	0	0	0	0	0	0	0	0
6.71	-15.2223	523.149	-8.97458	-0.20284	0.006	-0.4566	0	-6.28254	0	3.83045	194.032	14.6452	-0.188468	0.006	-0.766784	0	5.09166	0	0	0	0	0	0	0	0	0	0
6.72	-15.8534	523.486	-9.60819	-0.202072	0.006	-0.4563	0	-6.27118	0	3.4358	193.28	14.3693	-0.187426	0.006	-0.767061	0	5.1216	0	0	0	0	0	0	0	0	0	0
6.73	-16.4162	523.86	-10.2243	-0.201389	0.006	-0.456026	0	-6.24524	0	3.07493	192.363	14.0841	-0.18644	0.006	-0.767285	0	5.13688	0	0	0	0	0	0	0	0	0	0
6.74	-16.8925	524.307	-10.8064	-0.200798	0.006	-0.455782	0	-6.20706	0	2.75238	191.287	13.8004	-0.185513	0.006	-0.767463	0	5.13785	0	0	0	0	0	0	0	0	0	0
6.75	-17.2678	524.858	-11.3479	-0.200304	0.006	-0.455569	0	-6.15883	0	2.47033	190.063	13.5288	-0.184647	0.006	-0.767602	0	5.1252	0	0	0	0	0	0	0	0	0	0
6.76	-17.533	525.539	-11.8522	-0.199907	0.006	-0.455385	0	-6.10247	0	2.22975	188.711	13.2796	-0.183844	0.006	-0.767709	0	5.09995	0	0	0	0	0	0	0	0	0	0
6.77	-17.6831	526.37	-12.3309	-0.199607	0.006	-0.455229	0	-6.03954	0	2.03074	187.256	13.0636	-0.183105	0.006	-0.767789	0	5.06335	0	0	0	0	0	0	0	0	0	0
6.78	-17.7167	527.368	-12.8017	-0.199399	0.006	-0.455097	0	-5.97138	0	1.8723	185.737	12.8916	-0.182435	0.006	-0.767847	0	5.01684	0	0	0	0	0	0	0	0	0	0
6.79	-17.6352	528.539	-13.2859	-0.199278	0.006	-0.454983	0	-5.89904	0	1.75259	184.197	12.7751	-0.181836	0.006	-0.767891	0	4.96188	0	0	0	0	0	0	0	0	0	0
6.8	-17.4429	529.88	-13.8044	-0.199238	0.006	-0.454881	0	-5.82339	0	1.66911	182.69	12.7253	-0.181314	0.006	-0.767923	0	4.89977	0	0	0	0	0	0	0	0	0	0
6.81	-17.1465	531.381	-14.3749	-0.199272	0.006	-0.454785	0	-5.74514	0	1.61847	181.273	12.7541	-0.180875	0.006	-0.767951	0	4.83171	0	0	0	0	0	0	0	0	0	0
6.82	-16.754	533.02	-15.0113	-0.199372	0.006	-0.45469	0	-5.66473	0	1.59591	180.008	12.8746	-0.18053	0.006	-0.767979	0	4.75883	0	0	0	0	0	0	0	0	0	0
6.83	-16.2757	534.762	-15.7228	-0.199528	0.006	-0.454593	0	-5.58223	0	1.59536	178.954	13.1002	-0.180288	0.006	-0.768013	0	4.68213	0	0	0	0	0	0	0	0	0	0
6.84	-15.7252	536.558	-16.5132	-0.199732	0.006	-0.45449	0	-5.49739	0	1.60974	178.173	13.4442	-0.180159	0.006	-0.768058	0	4.60248	0	0	0	0	0	0	0	0	0	0
6.85	-15.1196	538.35	-17.38	-0.199975	0.006	-0.45438	0	-5.40973	0	1.63169	177.718	13.9179	-0.180153	0.006	-0.768118	0	4.52056	0	0	0	0	0	0	0	0	0	0
6.86	-14.4774	540.071	-18.3154	-0.200249	0.006	-0.454265	0	-5.31871	0	1.65468	177.631	14.5301	-0.180274	0.006	-0.768197	0	4.43699	0	0	0	0	0	0	0	0	0	0
6.87	-13.8166	541.654	-19.3073	-0.200548	0.006	-0.454144	0	-5.22374	0	1.67346	177.949	15.2861	-0.180528	0.006	-0.768299	0	4.35221	0	0	0	0	0	0	0	0	0	0
6.88	-13.1539	543.03	-20.3415	-0.200867	0.006	-0.45402	0	-5.12421	0	1.68387	178.693	16.1881	-0.180913	0.006	-0.768429	0	4.26644	0	0	0	0	0	0	0	0	0	0
6.89	-12.5042	544.134	-21.4021	-0.2012	0.006	-0.453892	0	-5.01967	0	1.68287	179.872	17.2347	-0.181425	0.006	-0.76859	0	4.17986	0	0	0	0	0	0	0	0	0	0
6.9	-11.8806	544.905	-22.4715	-0.201546	0.006	-0.453764	0	-4.9099	0	1.66849	181.479	18.4209	-0.182057	0.006	-0.768783	0	4.09253	0	0	0	0	0	0	0	0	0	0
6.91	-11.2933	545.294	-23.531	-0.201903	0.006	-0.453636	0	-4.795	0	1.6401	183.494	19.7378	-0.182797	0.006	-0.769009	0	4.00428	0	0	0	0	0	0	0	0	0	0
6.92	-10.7501	545.263	-24.5627	-0.202271	0.006	-0.453512	0	-4.67535	0	1.59826	185.878	21.1722	-0.183631	0.006	-0.769265	0	3.91479	0	0	0	0	0	0	0	0	0	0
6.93	-10.2576	544.785	-25.5499	-0.20265	0.006	-0.453394	0	-4.55168	0	1.54444	188.575	22.706	-0.184546	0.006	-0.769544	0	3.8237	0	0	0	0	0	0	0	0	0	0
6.94	-9.82316	543.849	-26.4778	-0.203042	0.006	-0.453283	0	-4.42492	0	1.48085	191.518	24.3175	-0.185527	0.006	-0.769836	0	3.73077	0	0	0	0	0	0	0	0	0	0
6.95	-9.4536	542.457	-27.3341	-0.203448	0.006	-0.453183	0	-4.29606	0	1.41021	194.628	25.9809	-0.186557	0.006	-0.770135	0	3.63592	0	0	0	0	0	0	0	0	0	0
6.96	-9.15508	540.626	-28.1097	-0.203871	0.006	-0.453094	0	-4.16599	0	1.33534	197.816	27.6676	-0.187622	0.006	-0.770432	0	3.53915	0	0	0	0	0	0	0	0	0	0
6.97	-8.931	538.386	-28.7984	-0.204314	0.006	-0.453018	0	-4.03575	0	1.25892	200.99	29.3474	-0.188704	0.006	-0.770722	0	3.44063	0	0	0	0	0	0	0	0	0	0
6.98	-8.78183	535.776	-29.3957	-0.20478	0.006	-0.452954	0	-3.90639	0	1.1837	204.056	30.9902	-0.189793	0.006	-0.770998	0	3.34077	0	0	0	0	0	0	0	0	0	0
6.99	-8.70542	532.842	-29.8984	-0.205275	0.006	-0.452904	0	-3.77901	0	1.11312	206.928	32.5674	-0.190879	0.006	-0.771258	0	3.24007	0	0	0	0	0	0	0	0	0	0
7	-8.69691	529.637	-30.3039	-0.205803	0.006	-0.452867	0	-3.65474	0	1.05159	209.53	34.0538	-0.19196	0.006	-0.7715	0	3.13896	0	0	0	0	0	0	0	0	0	0
7.01	-8.749	526.217	-30.6113	-0.206371	0.006	-0.452844	0	-3.5347	0	1.00347	211.8	35.4282	-0.193028	0.006	-0.771725	0	3.03764	0	0	0	0	0	0	0	0	0	0
7.02	-8.85223	522.633	-30.8216	-0.206983	0.006	-0.452835	0	-3.42013	0	0.971112	213.681	36.6727	-0.194077	0.006	-0.771933	0	2.93609	0	0	0	0	0	0	0	0	0	0
7.03	-8.99681	518.933	-30.9379	-0.207641	0.006	-0.452839	0	-3.31218	0	0.953899	215.122	37.772	-0.195102	0.006	-0.772123	0	2.83417	0	0	0	0	0	0	0	0	0	0
7.04	-9.17373	515.15	-30.9654	-0.208347	0.006	-0.452854	0	-3.21175	0	0.948854	216.078	38.7124	-0.196096	0.006	-0.772297	0	2.73161	0	0	0	0	0	0	0	0	0	0
7.05	-9.37504	511.302	-30.9111	-0.2091	0.006	-0.452879	0	-3.1194	0	0.951979	216.509	39.4815	-0.197053	0.006	-0.772453	0	2.62828	0	0	0	0	0	0	0	0	0	0
7.06	-9.59285	507.391	-30.7838	-0.209899	0.006	-0.452915	0	-3.03539	0	0.959455	216.385	40.0683	-0.197971	0.006	-0.772591	0	2.52414	0	0	0	0	0	0	0	0	0	0
